<?xml version="1.0"?>
<svg xmlns="http://www.w3.org/2000/svg" xmlns:xlink="http://www.w3.org/1999/xlink" version="1.1" id="Layer_1" x="0px" y="0px" viewBox="0 0 512 512" style="enable-background:new 0 0 512 512;" xml:space="preserve" width="512px" height="512px" class=""><g><rect style="fill:#FFFFFF" width="512" height="512" data-original="#FFD55C" class="active-path" data-old_color="#ffffff"/><rect x="158.195" y="118.118" style="fill:#F2F2F2;" width="91.917" height="275.763" data-original="#F2F2F2" class=""/><rect x="250.112" y="118.118" style="fill:#E6E5E5;" width="91.914" height="275.763" data-original="#E6E5E5" class=""/><g>
	<polygon style="fill:#34AFAA" points="342.019,305.564 342.026,393.874 253.668,393.882  " data-original="#06B2B8" class="" data-old_color="#4BC5C0"/>
	<polygon style="fill:#34AFAA" points="250.112,278.776 250.112,371.484 296.463,325.13  " data-original="#06B2B8" class="" data-old_color="#4BC5C0"/>
</g><rect x="342.016" y="118.118" style="fill:#F2F2F2;" width="91.924" height="275.763" data-original="#F2F2F2" class=""/><polygon style="fill:#39C0BA" points="342.019,305.564 403.305,244.316 433.935,274.941 433.951,393.874 342.019,393.874 " data-original="#21D8DE" class="" data-old_color="#21D8DE"/><g>
	<polygon style="fill:#FFFFFF;" points="250.104,252.808 250.104,278.771 158.18,186.849 158.18,160.888  " data-original="#FFFFFF" class=""/>
	<rect x="231.757" y="253.901" style="fill:#FFFFFF;" width="18.358" height="139.994" data-original="#FFFFFF" class=""/>
	<polygon style="fill:#FFFFFF;" points="250.104,371.492 250.104,393.882 227.707,393.882  " data-original="#FFFFFF" class=""/>
	<polygon style="fill:#FFFFFF;" points="433.935,248.947 433.935,274.941 403.305,244.316 342.019,305.564 342.019,279.575    390.298,231.299 342.019,183.025 342.019,157.028  " data-original="#FFFFFF" class=""/>
</g><g>
	<polygon style="fill:#F2F2F2;" points="342.019,279.575 342.019,305.564 253.668,393.882 250.104,393.882 250.104,371.492    296.463,325.13 250.104,278.771 250.104,252.808 309.443,312.151  " data-original="#F2F2F2" class=""/>
	<polygon style="fill:#F2F2F2;" points="342.019,157.028 342.019,183.025 277.125,118.126 303.114,118.126  " data-original="#F2F2F2" class=""/>
</g><path style="fill:#F16953" d="M387.994,134.559c-16.64,0-30.126,13.481-30.126,30.108c0,6.922,2.516,13.148,6.246,18.363  c23.877,33.446,23.877,33.446,23.877,33.446s0,0,23.875-33.457c3.725-5.212,6.234-11.433,6.234-18.35  C418.099,148.04,404.616,134.559,387.994,134.559z" data-original="#FF6D3B" class="" data-old_color="#FF6D3B"/><path style="fill:#FFFFFF;" d="M406.167,164.667c0,10.043-8.146,18.184-18.176,18.184c-10.04,0-18.189-8.141-18.189-18.184  c0-10.03,8.151-18.176,18.189-18.176C398.024,146.491,406.167,154.634,406.167,164.667z" data-original="#FFFFFF" class=""/><path style="fill:#2B4457;" d="M238.308,313.738c0,44.255-35.86,80.138-80.113,80.138c-44.268,0-80.143-35.884-80.143-80.138  c0-44.252,35.876-80.131,80.143-80.131C202.45,233.608,238.308,269.486,238.308,313.738z" data-original="#2B4457" class=""/><path style="fill:#FFFFFF;" d="M222.285,313.738c0,35.407-28.69,64.105-64.09,64.105c-35.407,0-64.118-28.698-64.118-64.105  c0-35.405,28.71-64.105,64.118-64.105C193.595,249.633,222.285,278.333,222.285,313.738z" data-original="#FFFFFF" class=""/><path style="fill:#D9D8D7;" d="M158.195,358.612c-24.753,0-44.882-20.127-44.882-44.874c0-24.745,20.129-44.874,44.882-44.874  c24.732,0,44.867,20.129,44.867,44.874C203.062,338.486,182.927,358.612,158.195,358.612z M158.195,278.477  c-19.448,0-35.269,15.821-35.269,35.259c0,19.443,15.821,35.261,35.269,35.261c19.433,0,35.246-15.821,35.246-35.261  C193.441,294.298,177.628,278.477,158.195,278.477z" data-original="#D9D8D7" class=""/><g>
	<polygon style="fill:#2B4457;" points="158.195,259.249 148.564,313.738 158.195,368.228 167.803,313.738  " data-original="#2B4457" class=""/>
	<polygon style="fill:#2B4457;" points="103.698,313.738 158.195,323.354 212.677,313.738 158.195,304.125  " data-original="#2B4457" class=""/>
</g><polygon style="fill:#DC604C" points="118.52,353.405 125.737,353.405 161.795,317.345 154.573,310.131 118.52,346.189 " data-original="#F15424" class="" data-old_color="#F15424"/><g>
	<polygon style="fill:#39C0BA" points="161.795,317.345 197.852,281.288 197.852,274.074 190.646,274.074 154.573,310.131  " data-original="#21D8DE" class="" data-old_color="#21D8DE"/>
	<path style="fill:#39C0BA" d="M165.394,320.952c3.981-3.981,3.981-10.44,0-14.428c-3.988-3.983-10.442-3.983-14.423,0   L165.394,320.952z" data-original="#21D8DE" class="" data-old_color="#21D8DE"/>
</g><path style="fill:#DC604C" d="M165.394,320.952c-3.988,3.981-10.442,3.981-14.423,0c-3.988-3.981-3.988-10.44,0-14.428  L165.394,320.952z" data-original="#F15424" class="" data-old_color="#F15424"/><path style="fill:#FFFFFF;" d="M154.573,310.131c1.997-1.989,5.233-1.989,7.222,0c1.989,1.992,1.989,5.225,0,7.214  c-1.997,1.989-5.225,1.989-7.222,0C152.589,315.356,152.589,312.123,154.573,310.131z" data-original="#FFFFFF" class=""/><path style="fill:#2B4457;" d="M156.014,311.572c1.208-1.193,3.146-1.193,4.339,0c1.193,1.201,1.193,3.141,0,4.332  c-1.193,1.19-3.133,1.193-4.339,0C154.829,314.714,154.829,312.773,156.014,311.572z" data-original="#2B4457" class=""/></g> </svg>
